<svg xmlns="http://www.w3.org/2000/svg" width="300.994" height="auto" viewBox="0 0 200.994 56.088">
  <g id="Group_9343" data-name="Group 9343" transform="translate(-188.535 -872.93)">
    <path id="Path_303" data-name="Path 303" d="M220.685,895.377,215.4,912.662l-5.313-17.284h-5.063l-5.338,17.284-5.263-17.284-5.886-.05,8.23,26.986h4.689l6.086-18.531,6.111,18.531h4.689l8.231-26.937Z" transform="translate(0 -12.706)" fill="#0076be"/>
    <path id="Path_304" data-name="Path 304" d="M297.078,895.669a12.528,12.528,0,0,0-7.121-1.958,13.4,13.4,0,0,0-6.984,1.8,12.411,12.411,0,0,0-4.714,5.051,16.378,16.378,0,0,0-1.7,7.67,14.721,14.721,0,0,0,1.734,7.233,12.522,12.522,0,0,0,4.826,4.914,14.2,14.2,0,0,0,7.183,1.771,13.162,13.162,0,0,0,7.121-2.021,12.055,12.055,0,0,0,4.777-5.662l-5.936-1.8a6.436,6.436,0,0,1-2.482,2.856,7.185,7.185,0,0,1-3.829.985,6.31,6.31,0,0,1-5.238-2.245,8.771,8.771,0,0,1-1.707-4.664H302.5a18.9,18.9,0,0,0-1.072-8.406,11.61,11.61,0,0,0-4.353-5.525m-6.872,3.305a5.605,5.605,0,0,1,4.789,2.02,8.462,8.462,0,0,1,1.4,4.065H283.157a8.427,8.427,0,0,1,1.562-3.8,6.553,6.553,0,0,1,5.487-2.282" transform="translate(-49.96 -11.788)" fill="#0076be"/>
    <rect id="Rectangle_428" data-name="Rectangle 428" width="6.011" height="36.665" transform="translate(256.653 872.93)" fill="#0076be"/>
    <rect id="Rectangle_429" data-name="Rectangle 429" width="6.011" height="36.665" transform="translate(268.658 872.93)" fill="#0076be"/>
    <path id="Path_305" data-name="Path 305" d="M417.485,895.669a12.528,12.528,0,0,0-7.121-1.958,13.4,13.4,0,0,0-6.984,1.8,12.409,12.409,0,0,0-4.714,5.051,16.378,16.378,0,0,0-1.7,7.67,14.726,14.726,0,0,0,1.734,7.233,12.524,12.524,0,0,0,4.826,4.914,14.2,14.2,0,0,0,7.183,1.771,13.164,13.164,0,0,0,7.121-2.021,12.054,12.054,0,0,0,4.777-5.662l-5.936-1.8a6.439,6.439,0,0,1-2.482,2.856,7.182,7.182,0,0,1-3.828.985,6.31,6.31,0,0,1-5.238-2.245,8.772,8.772,0,0,1-1.707-4.664h19.49a18.9,18.9,0,0,0-1.073-8.406,11.609,11.609,0,0,0-4.352-5.525m-6.872,3.305a5.6,5.6,0,0,1,4.789,2.02,8.459,8.459,0,0,1,1.4,4.065H403.564a8.422,8.422,0,0,1,1.563-3.8,6.552,6.552,0,0,1,5.487-2.282" transform="translate(-118.295 -11.788)" fill="#0076be"/>
    <path id="Path_306" data-name="Path 306" d="M483.419,898.724a7.842,7.842,0,0,0-4.053-3.841,15.915,15.915,0,0,0-6.323-1.172,12.482,12.482,0,0,0-7.57,2.07,10.173,10.173,0,0,0-3.8,5.488l5.487,1.721a4.706,4.706,0,0,1,2.369-2.918,7.774,7.774,0,0,1,3.517-.848q3.018,0,4.29,1.322a5.057,5.057,0,0,1,1.214,3.22c-1.085.16-2.144.314-3.172.459q-2.556.362-4.739.786a33.028,33.028,0,0,0-3.8.948,10.641,10.641,0,0,0-3.491,1.858,7.008,7.008,0,0,0-2,2.694,9.041,9.041,0,0,0-.648,3.5,8.163,8.163,0,0,0,1.035,4.065,7.588,7.588,0,0,0,3.055,2.956,10.136,10.136,0,0,0,4.939,1.11,12.315,12.315,0,0,0,6.073-1.359,11.143,11.143,0,0,0,3.379-3.018V921.4h5.263V904.86a32.318,32.318,0,0,0-.149-3.23,8.186,8.186,0,0,0-.873-2.906m-5.537,14.167a6.22,6.22,0,0,1-1.16,1.97,6.951,6.951,0,0,1-2.307,1.771,7.741,7.741,0,0,1-3.492.723,5.6,5.6,0,0,1-2.382-.449,3.417,3.417,0,0,1-1.459-1.209,3.131,3.131,0,0,1-.5-1.758,2.915,2.915,0,0,1,.386-1.522,3.719,3.719,0,0,1,1.11-1.147,7.642,7.642,0,0,1,1.771-.873,22.905,22.905,0,0,1,2.469-.636q1.4-.286,3.342-.611,1.245-.207,2.807-.455c-.01.458-.026.974-.051,1.565a7.714,7.714,0,0,1-.536,2.631" transform="translate(-154.465 -11.788)" fill="#0076be"/>
    <path id="Path_307" data-name="Path 307" d="M540.724,917.964a2.562,2.562,0,0,0-1.854-.734h-10.42l12.684-17.51a2.96,2.96,0,0,0,.612-1.759,2.678,2.678,0,0,0-.687-1.8,2.422,2.422,0,0,0-1.856-.834H524.645a2.583,2.583,0,0,0-1.806.71,2.533,2.533,0,0,0,0,3.665,2.584,2.584,0,0,0,1.807.711h9.524l-12.611,17.467a2.8,2.8,0,0,0-.69,1.849,2.6,2.6,0,0,0,.664,1.706,2.438,2.438,0,0,0,1.926.884h15.41a2.558,2.558,0,0,0,1.855-.735,2.59,2.59,0,0,0,0-3.615Z" transform="translate(-188.616 -12.704)" fill="#0076be"/>
    <path id="Path_308" data-name="Path 308" d="M598.7,895.839l-.51.02.019.51h.492l-.493.05a9.634,9.634,0,0,1-19.267-.036h-.492l.493-.052v-.493h-5.6l-.474.023-.019.473v.089a15.808,15.808,0,0,0,13.06,15.453v8.07a2.662,2.662,0,0,0,1.284,2.277v11.423a5.572,5.572,0,0,1-5.566,5.566h-.729a5.45,5.45,0,0,1-5.332-4.353,5.357,5.357,0,1,0-2.8.055,8.225,8.225,0,0,0,8.133,7.071h.729a8.348,8.348,0,0,0,8.338-8.338V922.221a2.663,2.663,0,0,0,1.278-2.273v-8.07a15.81,15.81,0,0,0,13.06-15.461v-.577Zm-24.712,37.587a3.624,3.624,0,1,1,3.624-3.624,3.624,3.624,0,0,1-3.624,3.624" transform="translate(-215.75 -12.968)" fill="#ed4815"/>
    <path id="Path_309" data-name="Path 309" d="M579.717,882.06s3.741-1.477,3.741-4.085a2.155,2.155,0,0,0-2.034-2.06,1.884,1.884,0,0,0-1.76,1.212,1.911,1.911,0,0,0-1.759-1.212,2.01,2.01,0,0,0-1.937,2.06c0,2.688,3.749,4.085,3.749,4.085" transform="translate(-219.877 -1.695)" fill="#ed4815"/>
    <path id="Path_310" data-name="Path 310" d="M639.77,882.06s3.741-1.477,3.741-4.085a2.155,2.155,0,0,0-2.034-2.06,1.884,1.884,0,0,0-1.76,1.212,1.911,1.911,0,0,0-1.759-1.212,2.01,2.01,0,0,0-1.937,2.06c0,2.688,3.749,4.085,3.749,4.085" transform="translate(-253.982 -1.695)" fill="#ed4815"/>
    <path id="Path_311" data-name="Path 311" d="M580.135,971.116a2.53,2.53,0,1,1-2.53-2.53,2.53,2.53,0,0,1,2.53,2.53" transform="translate(-219.37 -54.29)" fill="#ed4815"/>
  </g>
</svg>
