<svg width="44" height="44" viewBox="0 0 44 44" fill="none" xmlns="http://www.w3.org/2000/svg">
<path d="M38.8803 23.0919C39.347 22.5899 39.6728 21.9736 39.8247 21.3052C39.9765 20.6368 39.9491 19.9402 39.7452 19.2859C40.2507 18.9223 40.6514 18.4319 40.9071 17.8642C41.1628 17.2964 41.2644 16.6713 41.2016 16.0518C41.1389 15.4323 40.9141 14.8403 40.5498 14.3353C40.1855 13.8303 39.6946 13.4303 39.1265 13.1754C38.5264 12.9004 37.8612 12.7997 37.2066 12.8848C36.5521 12.9699 35.9347 13.2374 35.425 13.6566C35.3708 13.6989 35.3257 13.7515 35.2922 13.8114C35.2587 13.8713 35.2375 13.9373 35.2298 14.0055C35.2221 14.0738 35.2282 14.1428 35.2475 14.2087C35.2669 14.2745 35.2993 14.3359 35.3427 14.3891C35.3861 14.4423 35.4396 14.4862 35.5003 14.5185C35.5609 14.5507 35.6273 14.5704 35.6957 14.5766C35.7641 14.5828 35.833 14.5753 35.8984 14.5545C35.9638 14.5337 36.0245 14.5 36.0767 14.4555C36.4384 14.158 36.8763 13.9681 37.3406 13.9073C37.8049 13.8466 38.2769 13.9174 38.703 14.1117C39.0892 14.284 39.4256 14.5511 39.6809 14.8883C39.9362 15.2255 40.1021 15.6217 40.1632 16.0402C40.2242 16.4587 40.1785 16.8858 40.0302 17.2819C39.8818 17.678 39.6358 18.0301 39.3148 18.3055C39.1957 18.1169 39.0607 17.9389 38.9113 17.7734C38.8196 17.6718 38.6914 17.6108 38.5548 17.6038C38.4182 17.5968 38.2844 17.6443 38.1829 17.7359C38.0813 17.8275 38.0203 17.9557 38.0133 18.0923C38.0062 18.229 38.0538 18.3628 38.1454 18.4643C38.3623 18.7018 38.5363 18.9751 38.6596 19.2721C38.8664 19.7412 38.9419 20.2576 38.8778 20.7663C38.8137 21.2749 38.6126 21.7565 38.296 22.1596L38.5421 23.3916C38.5483 23.3909 38.8755 23.1001 38.8803 23.0919Z" fill="#464747"/>
<path d="M33.6887 42.8845V35.5282C35.6247 36.6406 37.2451 37.2112 38.5012 37.2112C41.0807 37.2112 42.4543 35.3144 42.4543 33.9456C42.4165 33.1324 42.2661 32.3284 42.0074 31.5565C41.9663 31.4272 41.8758 31.3193 41.7555 31.2563C41.6353 31.1934 41.495 31.1805 41.3653 31.2204H41.3598C41.2295 31.2617 41.1211 31.3531 41.0582 31.4744C40.9953 31.5957 40.9831 31.737 41.0243 31.8673C41.2497 32.5394 41.385 33.2385 41.4265 33.9463C41.4265 34.8593 40.3856 36.1807 38.5046 36.1807C37.395 36.1807 35.8233 35.5963 33.9533 34.4908C28.9648 31.5634 23.8952 26.2917 23.8952 25.0088C23.8952 23.0281 24.7202 22.7744 25.4421 22.7744C26.8171 22.7744 27.0804 23.2557 27.5603 24.1247C27.9593 24.9567 28.5645 25.6728 29.3182 26.205C31.3243 27.569 37.923 30.5665 39.1838 30.5665H39.1997C39.2902 30.5624 39.3779 30.5336 39.4533 30.4834C40.0056 30.3532 40.5025 30.0517 40.873 29.6219C41.0115 29.4694 41.1379 29.3065 41.2512 29.1345L39.1887 25.0095L39.1818 24.9889L38.5424 23.3959C38.213 23.6868 37.8363 23.9193 37.4287 24.0834C37.0946 24.2153 36.7438 24.3002 36.3864 24.3357C36.2516 24.3494 36.1162 24.3563 35.9808 24.3564C35.321 24.3549 34.6721 24.1878 34.0937 23.8703C33.5153 23.5528 33.0259 23.0952 32.6705 22.5393C32.5969 22.4241 32.5721 22.2845 32.6015 22.151C32.6309 22.0176 32.7121 21.9013 32.8272 21.8277C32.9424 21.7542 33.082 21.7293 33.2155 21.7587C33.3489 21.7881 33.4652 21.8693 33.5388 21.9845C33.6129 22.0996 33.6947 22.2096 33.7835 22.3138C34.1778 22.77 34.7038 23.0929 35.289 23.238C35.8743 23.3831 36.4901 23.3434 37.0519 23.1244C37.3995 22.9883 37.7174 22.7858 37.9876 22.5283C38.0275 22.4925 38.0502 22.4685 38.0735 22.4437L38.2963 22.1687C37.7459 20.4515 36.883 18.8508 35.7512 17.447C35.4736 17.1538 35.1698 16.8867 34.8437 16.6488C33.3461 15.6212 31.6509 14.9167 29.8662 14.5801C29.7193 14.9835 29.5143 15.3634 29.2577 15.7076L27.1003 14.268C26.9867 14.1919 26.8474 14.1642 26.7133 14.1908C26.5791 14.2174 26.461 14.2963 26.385 14.4099C26.309 14.5236 26.2812 14.6629 26.3078 14.797C26.3345 14.9312 26.4133 15.0493 26.527 15.1253L28.5207 16.4549C28.2356 16.6728 27.9219 16.8504 27.5885 16.9829C27.5885 16.9774 27.5885 16.9637 27.5885 16.9657C26.9493 17.2263 26.2616 17.3463 25.572 17.3177C23.2579 17.3177 21.8238 15.4567 21.1363 14.224C20.934 13.8651 20.7669 13.4875 20.6372 13.0965C20.6132 13.017 20.5707 12.9443 20.513 12.8845C20.4554 12.8248 20.3844 12.7796 20.3058 12.7527C20.0413 12.6616 19.8057 12.5018 19.623 12.2899C19.4404 12.0779 19.3173 11.8213 19.2663 11.5462C19.2308 11.4216 19.2224 11.2909 19.2414 11.1628C19.2604 11.0347 19.3065 10.9121 19.3767 10.8032C19.4468 10.6943 19.5393 10.6016 19.6481 10.5313C19.7568 10.4609 19.8793 10.4146 20.0074 10.3953C20.0482 10.3865 20.0877 10.3727 20.125 10.354C20.1419 10.3509 20.1587 10.3468 20.1752 10.3417C20.18 10.3417 20.1827 10.3355 20.1875 10.3327C20.2071 10.3199 20.2257 10.3056 20.2432 10.2901C20.2751 10.2675 20.3044 10.2415 20.3305 10.2124C20.3451 10.1929 20.3584 10.1724 20.3704 10.1512C20.3908 10.1195 20.4076 10.0856 20.4206 10.0502C20.4284 10.0267 20.4342 10.0025 20.4378 9.97798C20.4451 9.93924 20.4478 9.89979 20.446 9.86042C20.446 9.84529 20.4508 9.83085 20.446 9.81504C20.443 9.80452 20.4393 9.79419 20.435 9.7841C20.4357 9.77174 20.4357 9.75934 20.435 9.74698C20.1195 8.60023 20.8248 7.02654 21.4285 6.3576C21.6494 6.40675 21.8753 6.42982 22.1015 6.42635C23.7867 6.37677 25.4304 5.89195 26.8728 5.01904C27.5266 5.44392 29.048 6.6326 29.048 8.51017C29.0486 8.57646 29.0627 8.64194 29.0893 8.70267C29.0893 8.70679 29.0934 8.70954 29.0948 8.71367C29.1182 8.76745 29.1508 8.81677 29.191 8.85942C29.2007 8.86904 29.2117 8.87729 29.222 8.88623C29.257 8.91855 29.2963 8.94586 29.3388 8.96735C29.3573 8.97615 29.3764 8.98373 29.3959 8.99004C29.4168 8.99983 29.4384 9.0081 29.4605 9.01479C29.4798 9.01617 29.4991 9.01617 29.5183 9.01479C29.5316 9.01873 29.5452 9.02194 29.5588 9.02442C29.6739 9.01667 29.7893 9.03355 29.8974 9.07393C30.0054 9.11432 30.1036 9.17727 30.1854 9.25859C30.2671 9.33992 30.3306 9.43775 30.3716 9.54556C30.4126 9.65337 30.4301 9.76867 30.423 9.88379C30.4552 10.1789 30.4284 10.4774 30.344 10.762C30.2596 11.0466 30.1193 11.3115 29.9315 11.5414C29.8703 11.5897 29.8209 11.6512 29.787 11.7213C29.7531 11.7915 29.7355 11.8684 29.7355 11.9463C29.7317 12.1098 29.7191 12.273 29.6977 12.4351C29.6898 12.5024 29.6951 12.5705 29.7135 12.6357C29.7319 12.7009 29.763 12.7618 29.8049 12.815C29.8469 12.8682 29.8989 12.9126 29.958 12.9457C30.0171 12.9788 30.0821 12.9999 30.1494 13.0078C30.1659 13.0088 30.1824 13.0088 30.1989 13.0078H30.2106C30.3368 13.0077 30.4585 12.9613 30.5528 12.8774C30.647 12.7935 30.7073 12.678 30.7221 12.5527C30.74 12.4049 30.7517 12.2715 30.7585 12.1594C31.256 11.5076 31.5029 10.6989 31.4543 9.88035C31.4728 9.49837 31.3667 9.12071 31.1521 8.80418C30.9375 8.48765 30.6259 8.24936 30.2642 8.12517C31.3408 5.08779 30.2512 3.08923 29.519 1.74035L29.332 1.39317C29.2884 1.31076 29.2234 1.24169 29.1437 1.19327C29.0641 1.14486 28.9728 1.1189 28.8796 1.11817C28.7869 1.11792 28.6958 1.14287 28.6161 1.19033C28.5364 1.23779 28.4712 1.306 28.4272 1.38767C28.3757 1.45642 27.9941 1.80842 25.4407 1.80842L24.9251 1.80429C22.6295 1.80429 21.1108 2.2931 20.2879 3.29754C19.7656 3.59079 19.3078 3.9862 18.9416 4.46021C18.5755 4.93421 18.3085 5.47709 18.1567 6.05648C18.056 6.6912 18.0897 7.33997 18.2555 7.96087C18.4213 8.58176 18.7155 9.16096 19.1192 9.66104C18.7886 9.86872 18.5278 10.1706 18.3702 10.5277C18.2127 10.8848 18.1656 11.281 18.235 11.6651C18.296 12.0914 18.4647 12.4951 18.725 12.8382C18.9853 13.1812 19.3287 13.4523 19.7228 13.6259C19.8375 13.9316 19.9706 14.23 20.1215 14.5196L17.8762 14.697C16.1437 14.6901 14.1705 14.8407 12.7268 15.7832C7.74241 19.0489 4.12616 24.322 4.12616 24.322C4.31147 24.7717 4.52739 25.2081 4.77241 25.6282C5.65858 27.2562 6.89142 28.6698 8.38384 29.769C8.35842 29.8008 8.33674 29.8354 8.31922 29.8722L7.76922 31.3159C7.73389 31.4095 7.72658 31.5114 7.74819 31.609C7.7698 31.7067 7.81939 31.796 7.89091 31.8659C9.62702 33.558 11.2122 35.3983 12.6285 37.3659C12.947 37.771 13.156 38.2511 13.2355 38.7602C13.2611 38.99 13.2307 39.2225 13.1469 39.438C13.0631 39.6535 12.9284 39.8455 12.7543 39.9977C12.399 40.2257 11.98 40.3339 11.5587 40.3064C10.115 40.3064 2.57997 32.6387 2.57997 29.1345C2.57997 28.4319 3.67103 27.3126 3.95497 27.0899C4.06176 27.0047 4.13048 26.8807 4.14607 26.7451C4.16166 26.6094 4.12286 26.4731 4.03816 26.3659C4.02642 26.3547 4.01402 26.3441 4.00103 26.3343C3.91393 26.2409 3.795 26.1836 3.66771 26.1737C3.54043 26.1638 3.41405 26.202 3.31353 26.2807C3.25647 26.326 1.55078 27.7856 1.55078 29.1345C1.55078 33.047 9.39378 41.3376 11.5608 41.3376C12.0808 41.3514 12.5964 41.2391 13.0637 41.0104V42.8845H33.6887ZM31.6949 15.995C31.7549 15.8726 31.8609 15.779 31.9898 15.7347C32.1187 15.6903 32.2598 15.6989 32.3824 15.7585L35.1187 17.0984C35.2415 17.1586 35.3353 17.2651 35.3796 17.3945C35.4239 17.5238 35.415 17.6655 35.3548 17.7883C35.2946 17.9111 35.1881 18.005 35.0588 18.0493C34.9294 18.0936 34.7877 18.0846 34.6649 18.0245L31.9287 16.6845C31.8062 16.6241 31.7128 16.5175 31.669 16.3882C31.6252 16.2588 31.6345 16.1174 31.6949 15.995ZM31.4364 18.0004C31.5251 17.8966 31.6514 17.8323 31.7875 17.8214C31.9236 17.8106 32.0584 17.8542 32.1624 17.9427L33.3373 18.945C33.4414 19.0337 33.5059 19.16 33.5168 19.2962C33.5277 19.4324 33.4841 19.5674 33.3954 19.6714C33.3068 19.7754 33.1805 19.84 33.0443 19.8509C32.9081 19.8618 32.7731 19.8181 32.6691 19.7295L31.4942 18.7271C31.4424 18.6834 31.3997 18.6299 31.3687 18.5697C31.3376 18.5095 31.3188 18.4437 31.3132 18.3762C31.3076 18.3087 31.3155 18.2407 31.3363 18.1762C31.3571 18.1117 31.3904 18.052 31.4343 18.0004H31.4364ZM13.0637 33.947V36.171C11.7759 34.4723 10.3687 32.8675 8.85272 31.3689L9.25766 30.3067C9.38141 30.3754 9.49691 30.4442 9.62616 30.5129L13.0637 27.0754V33.947Z" fill="#464747"/>
<path d="M29.8839 13.5962L28.4195 12.8606C28.2972 12.7992 28.1556 12.7888 28.0257 12.8318C27.8958 12.8748 27.7883 12.9676 27.7268 13.0899C27.6654 13.2122 27.655 13.3538 27.698 13.4837C27.741 13.6136 27.8338 13.7211 27.9561 13.7826L29.4205 14.5182C29.4934 14.5558 29.5747 14.5745 29.6568 14.5724C29.7388 14.5704 29.8191 14.5477 29.89 14.5065C29.9708 14.4607 30.0378 14.3943 30.0843 14.3139C30.1307 14.2336 30.1549 14.1423 30.1543 14.0495C30.1536 13.9568 30.1282 13.8658 30.0807 13.7861C30.0332 13.7064 29.9652 13.6409 29.8839 13.5962Z" fill="#464747"/>
</svg>
