<svg width="44" height="44" viewBox="0 0 44 44" fill="none" xmlns="http://www.w3.org/2000/svg">
<path d="M32.0234 14.7993C31.8444 14.7993 31.6686 14.7295 31.5371 14.5979C31.1149 14.1758 30.5536 13.9434 29.9564 13.9434C23.2742 13.9434 20.0601 13.0622 18.5405 12.323C18.3859 12.2478 18.2089 12.2355 18.0419 12.2881C17.9506 12.317 17.8543 12.3264 17.7588 12.3158C15.7161 12.088 14.1758 10.3641 14.1758 8.30595V5.41148C14.1758 4.01156 14.7211 2.69577 15.7111 1.70672C16.6996 0.717148 18.0153 0.171875 19.4153 0.171875H25.2041C29.3432 0.171875 32.7107 3.53934 32.7107 7.67852V14.1118C32.7107 14.3898 32.5432 14.6405 32.2863 14.747C32.2013 14.7822 32.1119 14.7993 32.0234 14.7993Z" fill="#444444"/>
<path d="M32.8123 16.0168C32.5607 16.1211 32.2951 16.1739 32.0229 16.1739C32.0215 16.1739 32.0199 16.1738 32.0185 16.1738V18.0903C32.0185 18.4573 31.9972 18.8219 31.957 19.1832C32.9268 18.535 33.5671 17.4305 33.5671 16.179C33.5671 15.9623 33.5471 15.749 33.51 15.54C33.3166 15.741 33.0815 15.9053 32.8123 16.0168Z" fill="#444444"/>
<path d="M12.7981 8.30577V5.4114C12.7981 5.40152 12.7988 5.39172 12.7988 5.38184C11.8862 6.02946 11.2891 7.09371 11.2891 8.29546V14.1117C11.2891 14.3897 11.4566 14.6404 11.7134 14.7469C11.7985 14.7821 11.8878 14.7992 11.9764 14.7992C12.1553 14.7992 12.3311 14.7294 12.4626 14.5979C12.8848 14.1757 13.4462 13.9433 14.0434 13.9433C15.1239 13.9433 15.9267 13.7364 16.522 13.4472C14.3384 12.735 12.7981 10.688 12.7981 8.30577Z" fill="#444444"/>
<path d="M11.9821 16.1738C11.9806 16.1738 11.9791 16.1739 11.9776 16.1739C11.7055 16.1739 11.4399 16.1211 11.1885 16.0168C10.9191 15.9053 10.684 15.741 10.4907 15.54C10.4535 15.749 10.4336 15.9624 10.4336 16.1791C10.4336 17.4306 11.0737 18.5351 12.0436 19.1833C12.0035 18.822 11.9822 18.4573 11.9822 18.0904V16.1738H11.9821Z" fill="#444444"/>
<path d="M23.8477 43.8505H30.2662L27.7642 32.6611C27.4925 32.8286 27.185 32.9179 26.8637 32.9179H25.4786L25.5572 33.7074C25.5596 33.7316 25.5607 33.7557 25.5606 33.7798C25.5595 33.948 25.4968 34.1111 25.3828 34.2371C25.2524 34.381 25.0673 34.4632 24.8731 34.4632H23.8591C23.8609 34.6783 23.8615 34.9394 23.8623 35.2596C23.8641 36.0411 23.8634 37.1271 23.8601 38.4876C23.8568 39.9001 23.8514 42.2262 23.8477 43.8505Z" fill="#444444"/>
<path d="M24.1107 33.088L23.5199 27.159C23.4822 26.7813 23.758 26.4445 24.1358 26.4067C24.514 26.3695 24.8504 26.6449 24.8881 27.0227L25.3385 31.5429H26.8607C26.9941 31.5429 27.0947 31.4601 27.1556 31.3907C27.2947 31.2322 27.3614 30.9974 27.3361 30.7585L25.8835 23.9152C25.4965 22.0919 23.8627 20.7686 21.9988 20.7686C20.1349 20.7686 18.501 22.0919 18.1141 23.9152L16.6615 30.7584C16.6362 30.9974 16.7029 31.2323 16.842 31.3907C16.9029 31.4601 17.0035 31.5429 17.1369 31.5429H18.6591L19.1095 27.0227C19.1471 26.6449 19.4843 26.37 19.8617 26.4067C20.2395 26.4444 20.5152 26.7812 20.4776 27.159L19.8869 33.088H24.1107Z" fill="#444444"/>
<path d="M9.83254 38.2772C9.93876 37.9127 10.3202 37.7031 10.6849 37.8095C11.0494 37.9157 11.2588 38.2974 11.1526 38.6619L9.60996 43.8507H22.4739C22.4847 40.6293 22.4918 36.0986 22.4814 34.4633H19.1287C18.9345 34.4633 18.7494 34.3812 18.6191 34.2372C18.4887 34.0933 18.4253 33.9009 18.4446 33.7077L18.5232 32.9182H17.138C16.6324 32.9182 16.1606 32.698 15.8097 32.298C15.4029 31.8344 15.2179 31.1999 15.3021 30.5569C15.3044 30.5389 15.3075 30.5211 15.3112 30.5034L16.0057 27.2314C13.8372 28.0008 10.973 29.0558 8.93673 29.9503C5.52011 31.451 4.49007 34.1947 4.3432 34.6381C2.2581 39.0794 1.71239 42.9078 1.69005 43.0691C1.66289 43.266 1.72219 43.465 1.85282 43.6149C1.98336 43.7647 2.17242 43.8507 2.37111 43.8507H8.17532L9.83254 38.2772Z" fill="#444444"/>
<path d="M42.3078 43.0691C42.2856 42.9078 41.7399 39.0793 39.6547 34.6381C39.5077 34.1944 38.4776 31.4509 35.0611 29.9503C33.0247 29.0558 30.1606 28.0008 27.9922 27.2314L28.6859 30.4994L31.6714 43.8507H34.388L32.8453 38.6619C32.7391 38.2974 32.9485 37.9157 33.3131 37.8095C33.6777 37.7033 34.0593 37.9127 34.1654 38.2772L35.8225 43.8506H41.6267C41.8254 43.8506 42.0144 43.7646 42.145 43.6148C42.2757 43.465 42.335 43.266 42.3078 43.0691Z" fill="#444444"/>
<path d="M16.525 24.7781L16.7686 23.6306C17.2896 21.176 19.489 19.3944 21.9983 19.3944C24.5076 19.3944 26.707 21.1759 27.228 23.6306L27.4716 24.7781C29.4636 23.1441 30.6409 20.6773 30.6409 18.0911V15.6455C30.6141 15.6214 30.5877 15.5964 30.562 15.5707C30.3971 15.4059 30.1868 15.3188 29.9534 15.3188C24.9538 15.3188 21.187 14.8424 18.7321 13.9023L17.1225 14.6844C16.2562 15.1053 15.2201 15.3188 14.043 15.3188C13.8097 15.3188 13.5993 15.4059 13.4345 15.5706C13.4088 15.5964 13.3824 15.6213 13.3555 15.6455V18.0911C13.3556 20.6773 14.533 23.1441 16.525 24.7781Z" fill="#444444"/>
<path d="M10.0635 20.916H7.34766C6.96798 20.916 6.66016 20.6082 6.66016 20.2285C6.66016 19.8488 6.96798 19.541 7.34766 19.541H10.0636C10.4433 19.541 10.7511 19.8488 10.7511 20.2285C10.7511 20.6082 10.4433 20.916 10.0635 20.916Z" fill="#444444"/>
<path d="M7.38249 24.7689C7.07655 24.7689 6.79743 24.5631 6.71733 24.2533C6.62237 23.8857 6.84332 23.5106 7.21096 23.4156L9.84047 22.7359C10.2079 22.6408 10.5831 22.8619 10.6782 23.2295C10.7732 23.597 10.5522 23.9722 10.1846 24.0671L7.55505 24.7468C7.49739 24.7617 7.43947 24.7689 7.38249 24.7689Z" fill="#444444"/>
<path d="M8.37964 28.4912C8.13773 28.4912 7.90312 28.3634 7.77765 28.1367C7.59366 27.8046 7.71371 27.3862 8.04595 27.2022L10.4217 25.8861C10.7538 25.702 11.1723 25.8222 11.3563 26.1543C11.5403 26.4865 11.4202 26.9049 11.088 27.0889L8.71222 28.405C8.6066 28.4635 8.49231 28.4912 8.37964 28.4912Z" fill="#444444"/>
<path d="M36.6535 20.916H33.9375C33.5578 20.916 33.25 20.6082 33.25 20.2285C33.25 19.8488 33.5578 19.541 33.9375 19.541H36.6535C37.0331 19.541 37.341 19.8488 37.341 20.2285C37.341 20.6082 37.0332 20.916 36.6535 20.916Z" fill="#444444"/>
<path d="M36.6223 24.7689C36.5653 24.7689 36.5075 24.7618 36.4498 24.7468L33.8203 24.0672C33.4527 23.9722 33.2317 23.5971 33.3267 23.2295C33.4217 22.8619 33.7966 22.6408 34.1644 22.736L36.7939 23.4157C37.1616 23.5106 37.3825 23.8857 37.2876 24.2533C37.2074 24.5632 36.9282 24.7689 36.6223 24.7689Z" fill="#444444"/>
<path d="M35.6214 28.4912C35.5086 28.4912 35.3944 28.4634 35.2889 28.4049L32.9131 27.0889C32.581 26.9049 32.4608 26.4864 32.6448 26.1543C32.8288 25.8222 33.2472 25.702 33.5794 25.8861L35.9551 27.2021C36.2873 27.3861 36.4074 27.8045 36.2234 28.1367C36.0979 28.3632 35.8632 28.4912 35.6214 28.4912Z" fill="#444444"/>
</svg>
