<svg width="44" height="44" viewBox="0 0 44 44" fill="none" xmlns="http://www.w3.org/2000/svg">
<path d="M11.5469 26.2109V31.0234C11.5469 32.019 10.7378 32.8281 9.7422 32.8281C8.84588 32.8281 8.10295 32.1724 7.96458 31.3032C8.7406 30.7467 9.26095 30.6866 9.45946 30.6866C9.52262 30.6866 9.5527 30.6926 9.5527 30.6926C9.86853 30.7979 10.2084 30.6264 10.3137 30.3106C10.419 29.9948 10.2475 29.6549 9.93169 29.5496C9.81438 29.5135 8.77969 29.2157 7.2036 30.3677C6.40953 30.1722 5.83203 29.4534 5.83203 28.6172C5.83203 27.7088 6.5118 26.9388 7.41114 26.8245C7.42617 26.8215 7.44121 26.8215 7.45324 26.8155C8.73758 26.8576 8.83383 27.5765 8.83985 27.7148C8.83985 28.0457 9.11055 28.3164 9.44142 28.3164C9.77228 28.3164 10.043 28.0457 10.043 27.7148C10.043 27.0712 9.60084 25.9222 8.02174 25.6635C8.25334 24.9356 8.93611 24.4062 9.7422 24.4062C10.7378 24.4062 11.5469 25.2154 11.5469 26.2109Z" fill="#444444"/>
<path d="M8.99211 23.3534C8.83811 23.3534 8.68411 23.2948 8.5668 23.1772L7.66446 22.2748C7.42956 22.0399 7.42956 21.6591 7.66446 21.4242C7.89937 21.1893 8.28016 21.1893 8.51507 21.4242L9.41741 22.3266C9.65231 22.5615 9.65231 22.9423 9.41741 23.1772C9.30011 23.2948 9.14611 23.3534 8.99211 23.3534Z" fill="#444444"/>
<path d="M8.08976 35.9862C7.93576 35.9862 7.78176 35.9276 7.66446 35.81C7.42956 35.5751 7.42956 35.1943 7.66446 34.9594L8.5668 34.057C8.80171 33.8221 9.1825 33.8221 9.41741 34.057C9.65231 34.292 9.65231 34.6727 9.41741 34.9076L8.51507 35.81C8.39776 35.9276 8.24376 35.9862 8.08976 35.9862Z" fill="#444444"/>
<path d="M4.17961 32.9784C4.02561 32.9784 3.87161 32.9198 3.7543 32.8022C3.5194 32.5673 3.5194 32.1865 3.7543 31.9516L4.65664 31.0492C4.89155 30.8143 5.27235 30.8143 5.50725 31.0492C5.74216 31.2841 5.74216 31.6649 5.50725 31.8998L4.60491 32.8022C4.48761 32.9198 4.33361 32.9784 4.17961 32.9784Z" fill="#444444"/>
<path d="M5.08195 26.3612C4.92795 26.3612 4.77395 26.3026 4.65664 26.185L3.7543 25.2826C3.5194 25.0477 3.5194 24.6669 3.7543 24.432C3.98921 24.1971 4.37001 24.1971 4.60491 24.432L5.50725 25.3344C5.74216 25.5693 5.74216 25.9501 5.50725 26.185C5.38995 26.3026 5.23595 26.3612 5.08195 26.3612Z" fill="#444444"/>
<path d="M37.2163 33.4327C35.7725 32.1333 34.407 30.9061 34.407 28.6172C34.407 26.3764 35.192 24.9056 36.1034 23.2001C37.1411 21.2571 38.3171 19.0554 38.3171 15.3828C38.3171 2.89437 30.8728 2.75 30.7976 2.75C17.6324 2.75 15.0186 7.98661 14.9133 8.20918C14.9043 8.22422 14.8983 8.24227 14.8923 8.26031L12.5763 14.6278C12.4921 14.8564 12.45 15.1001 12.45 15.3467V16.2641C12.45 16.8175 12.6755 17.3589 13.0666 17.75L13.8847 18.5681C13.9719 18.6583 13.9779 18.7997 13.8967 18.8959L11.5085 21.7173C11.2859 21.9819 11.1987 22.3279 11.2709 22.6677C11.3431 23.0016 11.5596 23.2813 11.8634 23.4317L13.8726 24.4393C13.7944 24.8725 13.7012 25.5643 13.6892 26.3673C14.0742 26.1809 14.4862 25.9914 14.9163 25.8109C18.264 24.4032 22.8209 23.3986 25.8076 26.3884C26.0453 26.623 26.0453 27.002 25.8076 27.2366C25.573 27.4742 25.194 27.4742 24.9594 27.2366C22.3246 24.6048 17.9903 25.7658 14.9073 27.1403C14.4953 27.3238 14.1073 27.5103 13.7493 27.6908C13.8456 28.5119 14.0591 29.3691 14.4742 30.1451C14.4953 30.1873 14.5223 30.2264 14.5554 30.2594V31.9198C14.5554 32.2476 14.6908 32.5634 14.9254 32.789C15.151 33.0026 15.4518 33.1229 15.7676 33.1229H15.8187C16.7601 33.0748 19.1333 32.8041 22.075 31.4024V32.9966C22.075 36.0044 23.1999 38.8648 25.2452 41.0575C25.3595 41.1808 25.5189 41.25 25.6843 41.25H39.821C40.1519 41.25 40.4226 40.9793 40.4226 40.6484V39.1445C40.4226 36.3202 38.7202 34.7862 37.2163 33.4327ZM25.4106 16.3122L27.2063 14.5166C27.5943 14.1256 28.1297 13.9391 28.6771 13.9962C29.2245 14.0564 29.7088 14.3571 30.0065 14.8204L30.939 16.2912C31.2788 16.8175 31.3149 17.5003 31.0322 18.0658L30.7344 18.6613C30.7194 18.6884 30.7044 18.7155 30.6863 18.7395C30.2592 19.3381 29.9494 19.9487 29.6185 20.5923L29.5283 20.7698C29.423 20.9773 29.2125 21.0977 28.9929 21.0977C28.8997 21.0977 28.8064 21.0766 28.7192 21.0315C28.4244 20.8811 28.3071 20.5171 28.4575 20.2224L28.5477 20.0449C28.8756 19.4012 29.2155 18.7395 29.6787 18.0808L29.9554 17.5274C30.0486 17.3409 30.0366 17.1153 29.9253 16.9378L28.9899 15.467C28.8906 15.3136 28.7312 15.2144 28.5477 15.1933C28.3643 15.1753 28.1868 15.2354 28.0545 15.3648L26.2588 17.1604C26.0242 17.398 25.6452 17.398 25.4106 17.1604C25.173 16.9258 25.173 16.5468 25.4106 16.3122ZM26.2859 38.543C25.955 38.543 25.6843 38.2723 25.6843 37.9414C25.6843 29.0443 22.4238 28.0156 19.9695 28.0156C19.2777 28.0156 18.5588 28.1961 17.8279 28.557C17.5301 28.7014 17.1692 28.5781 17.0248 28.2803C16.8774 27.9825 17.0008 27.6216 17.2985 27.4742C18.1949 27.0351 19.0942 26.8125 19.9695 26.8125C24.6256 26.8125 26.8874 30.452 26.8874 37.9414C26.8874 38.2723 26.6167 38.543 26.2859 38.543ZM31.3992 38.8438C31.0683 38.8438 30.7976 38.5731 30.7976 38.2422C30.7976 24.1265 24.9083 22.6016 22.3757 22.6016C20.7786 22.6016 19.1273 22.9144 17.473 23.531C17.1602 23.6453 16.8143 23.4889 16.7 23.176C16.5827 22.8662 16.7421 22.5203 17.0519 22.403C18.8446 21.7353 20.6342 21.3984 22.3757 21.3984C25.2692 21.3984 32.0007 23.0407 32.0007 38.2422C32.0007 38.5731 31.73 38.8438 31.3992 38.8438Z" fill="#444444"/>
</svg>
