<svg width="44" height="44" viewBox="0 0 44 44" fill="none" xmlns="http://www.w3.org/2000/svg">
<g clip-path="url(#clip0_2234_23579)">
<path d="M24.5357 25.4775H19.4654C19.0632 25.487 18.6806 25.6535 18.3995 25.9414C18.1183 26.2292 17.9609 26.6156 17.9609 27.018C17.9609 27.4203 18.1183 27.8067 18.3995 28.0946C18.6806 28.3824 19.0632 28.5489 19.4654 28.5584H24.5357C24.938 28.5489 25.3205 28.3824 25.6017 28.0946C25.8828 27.8067 26.0402 27.4203 26.0402 27.018C26.0402 26.6156 25.8828 26.2292 25.6017 25.9414C25.3205 25.6535 24.938 25.487 24.5357 25.4775Z" fill="#444444"/>
<path d="M24.5353 18.9255H23.5392V17.9295C23.5392 17.5209 23.3769 17.1289 23.0879 16.84C22.799 16.551 22.407 16.3887 21.9984 16.3887C21.5897 16.3887 21.1978 16.551 20.9088 16.84C20.6199 17.1289 20.4575 17.5209 20.4575 17.9295V18.9255H19.4615C19.0593 18.935 18.6767 19.1015 18.3955 19.3894C18.1144 19.6772 17.957 20.0636 17.957 20.466C17.957 20.8683 18.1144 21.2547 18.3955 21.5426C18.6767 21.8304 19.0593 21.9969 19.4615 22.0064H20.4575V23.0024C20.4575 23.4111 20.6199 23.803 20.9088 24.092C21.1978 24.3809 21.5897 24.5433 21.9984 24.5433C22.407 24.5433 22.799 24.3809 23.0879 24.092C23.3769 23.803 23.5392 23.4111 23.5392 23.0024V22.0064H24.5353C24.9375 21.9969 25.3201 21.8304 25.6012 21.5426C25.8823 21.2547 26.0397 20.8683 26.0397 20.466C26.0397 20.0636 25.8823 19.6772 25.6012 19.3894C25.3201 19.1015 24.9375 18.935 24.5353 18.9255Z" fill="#444444"/>
<path d="M33.6291 0H10.3709C7.62039 0 4.98251 1.09265 3.03758 3.03758C1.09265 4.98251 0 7.62039 0 10.3709L0 33.6291C0 36.3796 1.09265 39.0175 3.03758 40.9624C4.98251 42.9074 7.62039 44 10.3709 44H33.6291C36.3796 44 39.0175 42.9074 40.9624 40.9624C42.9074 39.0175 44 36.3796 44 33.6291V10.3709C44 7.62039 42.9074 4.98251 40.9624 3.03758C39.0175 1.09265 36.3796 0 33.6291 0ZM22 34.1172C19.4363 34.1145 16.9783 33.0948 15.1655 31.282C13.3527 29.4692 12.333 27.0112 12.3303 24.4475C12.3303 22.6875 13.2258 20.3586 15.0683 17.3267C16.506 14.9609 18.2299 12.6543 19.4236 11.1349C19.7302 10.7441 20.1216 10.4282 20.5682 10.2109C21.0148 9.99358 21.505 9.88066 22.0017 9.88066C22.4984 9.88066 22.9886 9.99358 23.4352 10.2109C23.8819 10.4282 24.2733 10.7441 24.5798 11.1349C25.7735 12.6543 27.5017 14.9609 28.9352 17.3267C30.7777 20.3586 31.6731 22.6875 31.6731 24.4475C31.6704 27.0118 30.6503 29.4703 28.8367 31.2832C27.0231 33.0961 24.5643 34.1154 22 34.1172Z" fill="#444444"/>
</g>
<defs>
<clipPath id="clip0_2234_23579">
<rect width="44" height="44" fill="white"/>
</clipPath>
</defs>
</svg>
