<svg width="44" height="44" viewBox="0 0 44 44" fill="none" xmlns="http://www.w3.org/2000/svg">
<g clip-path="url(#clip0_2234_23560)">
<path d="M13.3203 29.2842V31.4532C13.3203 33.3508 14.8603 34.8907 16.7578 34.8907C18.6562 34.8907 20.1953 33.3516 20.1953 31.4532V29.2979C17.9449 29.9144 15.541 29.9035 13.3203 29.2842Z" fill="#444444"/>
<path d="M24.5781 27.1562H22.7734V31.4531C22.7734 34.7701 20.0748 37.4688 16.7578 37.4688C13.4408 37.4688 10.7422 34.7701 10.7422 31.4531V27.1562H9.02344C4.04791 27.1562 0 31.2042 0 36.1797V42.7109C0 43.4228 0.577156 44 1.28906 44H6.01562V37.4688C6.01562 36.7568 6.59278 36.1797 7.30469 36.1797C8.01659 36.1797 8.59375 36.7568 8.59375 37.4688V44H25.0078V37.4688C25.0078 36.7568 25.585 36.1797 26.2969 36.1797C27.0088 36.1797 27.5859 36.7568 27.5859 37.4688V44H32.3125C33.0244 44 33.6016 43.4228 33.6016 42.7109V36.1797C33.6016 31.2042 29.5536 27.1562 24.5781 27.1562Z" fill="#444444"/>
<path d="M16.7746 27.1759H16.7915C22.4752 27.1759 27.1165 22.5518 27.1378 16.8665L27.1531 10.4582C24.164 12.2509 19.3696 14.1508 16.1928 12.3989C15.1142 11.8041 14.4741 10.945 14.0963 10.1816C10.911 11.7101 8.34393 12.1108 6.44531 11.3749V16.8465C6.44531 22.5421 11.079 27.1759 16.7746 27.1759ZM14.1131 19.341C15.6807 17.7221 17.8348 17.7179 19.4154 19.3981C19.9033 19.9166 19.8785 20.7324 19.3599 21.2202C18.8427 21.7069 18.0269 21.6845 17.5378 21.1647C16.9806 20.5724 16.5247 20.5568 15.9651 21.1345C15.4699 21.6458 14.6539 21.6591 14.1424 21.1638C13.6309 20.6685 13.6177 19.8524 14.1131 19.341Z" fill="#444444"/>
<path d="M14.2283 7.21402C15.0807 6.74549 16.0576 7.31818 16.1311 8.20927C16.1472 8.32846 16.3399 9.5523 17.4632 10.1551C19.9372 11.4825 24.8098 9.01158 27.1562 7.38899V7.04275C27.1562 3.15941 23.9968 0 20.1135 0H13.4881C9.60472 0 6.44531 3.15941 6.44531 7.04275V8.18022C7.67817 10.3428 12.0331 8.41964 14.2283 7.21402Z" fill="#444444"/>
<path d="M39.6529 0C37.2514 0 35.3047 1.94674 35.3047 4.34818V6.00505H38.366C39.0779 6.00505 39.655 6.58221 39.655 7.29412C39.655 8.00602 39.0779 8.58318 38.366 8.58318H35.3047V11.1289H44.001V4.34818C44.001 1.94674 42.0543 0 39.6529 0Z" fill="#444444"/>
<path d="M35.3047 16.2852H38.366C39.0779 16.2852 39.655 16.8623 39.655 17.5742C39.655 18.2861 39.0779 18.8633 38.366 18.8633H35.3047V21.4414H38.366C39.0779 21.4414 39.655 22.0186 39.655 22.7305C39.655 23.4424 39.0779 24.0195 38.366 24.0195H35.3047V26.2002L36.7573 29.1006V33.456C36.7573 35.0552 38.0537 36.3516 39.6529 36.3516C41.252 36.3516 42.5484 35.0552 42.5484 33.456V29.1006L44.001 26.2002V13.707H35.3047V16.2852Z" fill="#444444"/>
</g>
<defs>
<clipPath id="clip0_2234_23560">
<rect width="44" height="44" fill="white"/>
</clipPath>
</defs>
</svg>
