<svg width="44" height="44" viewBox="0 0 44 44" fill="none" xmlns="http://www.w3.org/2000/svg">
<g clip-path="url(#clip0_2234_23570)">
<path d="M1.31724 19.3311C0.598368 19.3311 0.015625 19.9139 0.015625 20.6327V39.7502C0.015625 40.4691 0.598454 41.0518 1.31724 41.0518H9.15931V19.3311H1.31724Z" fill="#444444"/>
<path d="M43.9814 26.5193C43.9814 24.8669 43.0936 23.418 41.7699 22.6245C42.2771 21.8922 42.5745 21.0039 42.5745 20.0476C42.5745 17.5457 40.539 15.5102 38.0371 15.5102H28.4586C28.7522 14.1799 29.1537 12.1836 29.4333 10.0939C30.1608 4.65568 29.6636 1.6397 27.8686 0.602515C26.7495 -0.043994 25.5429 -0.175135 24.4711 0.232897C23.6431 0.548288 22.5249 1.3237 21.8877 3.22679L19.3702 9.8183C18.094 12.9702 14.1856 16.2793 11.7617 18.109V41.6282C16.254 43.2022 20.9418 44.0001 25.7242 44.0001H36.161C38.6629 44.0001 40.6984 41.9646 40.6984 39.4627C40.6984 38.5865 40.4487 37.7676 40.0169 37.0733C41.5295 36.3366 42.5743 34.7834 42.5743 32.991C42.5743 32.0346 42.2769 31.1465 41.7698 30.4141C43.0936 29.6206 43.9814 28.1716 43.9814 26.5193Z" fill="#444444"/>
</g>
<defs>
<clipPath id="clip0_2234_23570">
<rect width="44" height="44" fill="white"/>
</clipPath>
</defs>
</svg>
