<svg width="44" height="44" viewBox="0 0 44 44" fill="none" xmlns="http://www.w3.org/2000/svg">
<g clip-path="url(#clip0_2234_23514)">
<path d="M34.9766 25.8672C30.9034 25.8672 27.4916 28.5985 26.3739 32.3125H22C19.8675 32.3125 18.1328 30.5778 18.1328 28.4453V24.5046C19.093 25.3089 20.1223 26.1388 21.1616 27.0304C21.402 27.2368 21.7016 27.3401 22 27.3401C22.2984 27.3401 22.598 27.2369 22.8384 27.0304C27.5773 22.9648 31.0234 20.971 31.0234 16.9445C31.0234 14.8963 29.9906 13.1665 28.4453 12.2373V10.3984C28.4453 6.84466 25.5538 3.95312 22 3.95312H15.206C14.3639 1.70904 11.3969 0 7.73438 0C3.39762 0 0 2.35065 0 5.24219C0 8.13373 3.39762 10.3984 7.73438 10.3984C11.3969 10.3984 14.3639 8.77534 15.206 6.53125H22C24.1325 6.53125 25.8672 8.26598 25.8672 10.3984V11.5037C24.0268 11.5037 22.7931 12.4252 22 13.4108C21.2069 12.4251 19.9732 11.5037 18.1328 11.5037C15.2413 11.5037 12.9766 13.893 12.9766 16.9445C12.9766 18.926 14.0039 20.5659 15.5547 22.1647V28.4453C15.5547 31.9991 18.4462 34.8906 22 34.8906H25.9531C25.9531 39.8656 30.0016 44 34.9766 44C39.9516 44 44 39.8656 44 34.8906C44 29.9156 39.9516 25.8672 34.9766 25.8672ZM37.5547 36.1797C36.8422 36.1797 36.2656 35.6031 36.2656 34.8906C36.2656 34.1794 35.6878 33.6016 34.9766 33.6016C34.2653 33.6016 33.6875 34.1794 33.6875 34.8906C33.6875 35.6031 33.1109 36.1797 32.3984 36.1797C31.6859 36.1797 31.1094 35.6031 31.1094 34.8906C31.1094 32.7582 32.8441 31.0234 34.9766 31.0234C37.109 31.0234 38.8438 32.7582 38.8438 34.8906C38.8438 35.6031 38.2672 36.1797 37.5547 36.1797Z" fill="#444444"/>
<path d="M6.72498 16.6632L9.21502 17.3305C9.8965 17.5143 10.6092 17.1116 10.7936 16.4191C10.9774 15.7318 10.5696 15.0243 9.88224 14.8405L7.3922 14.1733C6.70736 13.9945 5.99863 14.3961 5.81361 15.0847C5.62979 15.772 6.03765 16.4795 6.72498 16.6632Z" fill="#444444"/>
<path d="M34.1195 24.003L36.6095 24.6702C37.291 24.8541 38.0037 24.4513 38.1881 23.7589C38.372 23.0715 37.9641 22.3641 37.2768 22.1803L34.7867 21.5131C34.1019 21.3343 33.3932 21.7371 33.2081 22.4244C33.0243 23.1118 33.4322 23.8192 34.1195 24.003Z" fill="#444444"/>
<path d="M5.81358 23.7588C5.99817 24.4519 6.71128 24.8538 7.39216 24.6701L9.8822 24.0029C10.5695 23.8191 10.9774 23.1117 10.7936 22.4243C10.611 21.737 9.9036 21.3316 9.21498 21.513L6.72494 22.1802C6.0377 22.3639 5.62984 23.0714 5.81358 23.7588Z" fill="#444444"/>
<path d="M34.7867 17.3309L37.2768 16.6637C37.9641 16.4799 38.372 15.7724 38.1881 15.0851C38.0056 14.3965 37.2982 13.9937 36.6095 14.1737L34.1195 14.841C33.4322 15.0248 33.0243 15.7322 33.2081 16.4195C33.3927 17.1126 34.1058 17.5146 34.7867 17.3309Z" fill="#444444"/>
</g>
<defs>
<clipPath id="clip0_2234_23514">
<rect width="44" height="44" fill="white"/>
</clipPath>
</defs>
</svg>
