<svg width="44" height="44" viewBox="0 0 44 44" fill="none" xmlns="http://www.w3.org/2000/svg">
<g clip-path="url(#clip0_2234_23588)">
<path d="M22 0C9.87249 0 0 9.87249 0 22C0 34.1275 9.87249 44 22 44C34.1275 44 44 34.1275 44 22C44 9.87249 34.1275 0 22 0ZM33.7838 27.2387C30.8962 27.2387 28.545 24.8875 28.545 22C28.545 19.1124 30.8962 16.7612 33.7838 16.7612C36.6712 16.7612 39.0363 19.1124 39.0363 22C39.0363 24.8875 36.6712 27.2387 33.7838 27.2387ZM4.96374 22C4.96374 19.1124 7.31501 16.7612 10.2162 16.7612C13.1038 16.7612 15.455 19.1124 15.455 22C15.455 24.8875 13.1038 27.2387 10.2162 27.2387C7.31501 27.2387 4.96374 24.8875 4.96374 22ZM16.7612 22C16.7612 19.1124 19.1125 16.7612 22 16.7612C24.8875 16.7612 27.2387 19.1124 27.2387 22C27.2387 24.8875 24.8875 27.2387 22 27.2387C19.1125 27.2387 16.7612 24.8875 16.7612 22Z" fill="#444444"/>
<path d="M33.7827 24.3104C35.0584 24.3104 36.0927 23.2762 36.0927 22.0004C36.0927 20.7247 35.0584 19.6904 33.7827 19.6904C32.5069 19.6904 31.4727 20.7247 31.4727 22.0004C31.4727 23.2762 32.5069 24.3104 33.7827 24.3104Z" fill="#444444"/>
<path d="M22.0014 24.3104C23.2772 24.3104 24.3114 23.2762 24.3114 22.0004C24.3114 20.7247 23.2772 19.6904 22.0014 19.6904C20.7256 19.6904 19.6914 20.7247 19.6914 22.0004C19.6914 23.2762 20.7256 24.3104 22.0014 24.3104Z" fill="#444444"/>
<path d="M10.2162 24.3104C11.492 24.3104 12.5262 23.2762 12.5262 22.0004C12.5262 20.7247 11.492 19.6904 10.2162 19.6904C8.94047 19.6904 7.90625 20.7247 7.90625 22.0004C7.90625 23.2762 8.94047 24.3104 10.2162 24.3104Z" fill="#444444"/>
</g>
<defs>
<clipPath id="clip0_2234_23588">
<rect width="44" height="44" fill="white"/>
</clipPath>
</defs>
</svg>
